<svg xmlns="http://www.w3.org/2000/svg" viewBox="0 0 500 500"><g id="freepik--background-complete--inject-17"><path d="M91.76,125.74c6,4.09,14.61,3.68,14.61,3.68s4.8-7.15,4.41-14.41c-.33-6.05-4.7-10.33-9-9.36C95.54,107,99.39,117,99.39,117s-6.57-8.47-11-3.87C85.35,116.37,86.75,122.33,91.76,125.74Z" style="fill:#ebebeb"></path><path d="M393.18,167.39c-.51,7.25,4.17,14.48,4.17,14.48s8.58.55,14.66-3.44c5.07-3.33,6.57-9.26,3.56-12.51-4.32-4.67-11,3.69-11,3.69s4-9.94-2.18-11.44C398.05,157.13,393.61,161.34,393.18,167.39Z" style="fill:#ebebeb"></path><path d="M404.48,118.91c2.43,4.16,7.68,6.36,7.68,6.36s4.9-2.9,6.73-7.35c1.53-3.71.14-7.51-2.72-8.16-4.11-.94-4.66,6.13-4.66,6.13s-1.51-6.93-5.45-5.44C403.31,111.49,402.46,115.45,404.48,118.91Z" style="fill:#ebebeb"></path></g><g id="freepik--Plants--inject-17"><path d="M420.9,353.55c-1.54-5.28-3.34-11.14-1-16.43,2.16-4.88,6-9.71,11.59-10.55,1.59-.24,2.64-.12,2.4,1.71-.37,2.8-2.68,5.47-4.2,7.72a55.64,55.64,0,0,0-5.14,9.16c-1,2.26-1.72,4.62-2.64,6.91-.11.29-.22.58-.35.86,0,.11-.09.22-.14.33a.83.83,0,0,0,0,.15.29.29,0,0,1-.06.25.27.27,0,0,1-.08.07A.29.29,0,0,1,420.9,353.55Z" style="fill:#FFC727"></path><path d="M421.32,353.73c-1.11-4.71-2.6-9.71-.36-14.26a22.42,22.42,0,0,1,4.18-5.68c.75-.76,3-3.05,4.18-2.64,2.2.74-4.1,8.26-4.65,9.22a23.67,23.67,0,0,0-2.76,11.7c-.11.29-.22.58-.35.86a26.38,26.38,0,0,1,1-8.52c1.14-3.82,3.61-6.41,5.69-9.7.45-.71,2-2.91.61-3.24-.92-.21-3.1,2-3.56,2.48a22.38,22.38,0,0,0-4,5.38c-2.32,4.56-.93,9.56.07,14.33A.27.27,0,0,1,421.32,353.73Z" style="fill:#fff"></path><path d="M418.39,357.31l-.65,0h0a.14.14,0,0,1-.13-.07.24.24,0,0,1,0-.31.14.14,0,0,1,.13,0h.3l.06,0c3.28-1.84,6.86-3.13,10.13-5s6.13-3.81,9.4-5.36c2.05-1,12.54-5.23,12.4-.1-.07,2.27-2.77,4.5-4.41,5.77a23,23,0,0,1-7.36,3.74C431.73,358,425.08,357.05,418.39,357.31Z" style="fill:#FFC727"></path><path d="M432.31,355.42a26.24,26.24,0,0,0,7.18-2.63c.78-.42,4.52-2.47,4.08-3.8-.28-.86-2.05-.57-2.63-.5-2.5.3-4.77,1.71-7,2.77a103,103,0,0,1-14.07,5.43l-1,.11c-.26,0-.53.06-.79.1l-.27,0-.21,0a.22.22,0,0,0,0,.3l.61-.06-.48.14h0l.53,0h.12l.81-.22A110.53,110.53,0,0,0,432.31,355.42Zm-11.38,1.16c2.82-.85,5.59-1.85,8.31-3,2.19-.9,4.34-1.9,6.47-2.94a23.6,23.6,0,0,1,3.69-1.59c1-.29,4.68-1.07,2.89,1.39-1.31,1.78-4.73,3-6.72,3.67a38,38,0,0,1-6.78,1.58C426.19,356.1,423.55,356.32,420.93,356.58Z" style="fill:#fff"></path><path d="M404.5,363.87h0c0-.09-.07-.18-.08-.19-1-4.93-3.08-11.31-.88-16.17,1.63-3.6,5.59-7.73,9.82-7.79,4.77-.06.9,7.38,0,9.32a154.17,154.17,0,0,1-8.6,14.87s0,0-.07.08h0C404.62,364.07,404.55,364,404.5,363.87Z" style="fill:#FFC727"></path><path d="M404.68,364c.1-.32.21-.64.32-1,1.2-3.71,2.57-7.38,4.12-11,.38-.91,3.88-7.62,1.93-8-1.19-.23-2.88,2.12-3.46,2.89a15.44,15.44,0,0,0-2.37,4.53c-1.2,3.76-.64,7.81-.69,11.73a5,5,0,0,1,0,.55l0,.11h0C404.55,364,404.62,364.06,404.68,364Zm.34-10.33a15.7,15.7,0,0,1,1.78-4.92c.57-1,2.76-4.64,4.15-4.17.74.24.48.67.3,1.54a9.36,9.36,0,0,1-.33,1.18c-.33.95-.77,1.86-1.18,2.78-.74,1.61-1.43,3.22-2.09,4.86-1.08,2.68-2,5.4-2.92,8.16C404.89,359.94,404.47,356.77,405,353.67Z" style="fill:#fff"></path><path d="M416.78,370.24a29.77,29.77,0,0,1-16.69-4.67l-.08-.08a.25.25,0,0,1,0-.27.22.22,0,0,1,.29-.05l.31.19c6.83-.87,13.64-1.64,20.45-2.64,1.6-.23,11.87-1.53,11,1.94-.53,2.15-4.58,3.3-6.37,3.93A29.81,29.81,0,0,1,416.78,370.24Z" style="fill:#FFC727"></path><path d="M425.21,366.22c.51-.3,1-.73.46-1.26-1-1-5.84-.28-7.19-.15-5.55.53-11,.56-16.55.59l-1.42,0-.47-.2a.23.23,0,0,0,0,.27h.15l.63.26h0a35.29,35.29,0,0,0,10.62,2.45,33.28,33.28,0,0,0,6.91-.24C420.43,367.69,423.36,367.35,425.21,366.22Zm-24.06-.57-.31-.11.58,0a101.12,101.12,0,0,0,12.91-.09c2.18-.18,4.34-.49,6.52-.58.92,0,3.53-.24,4.12.38s-.39.86-.93,1.07-1.13.34-1.5.44A34.59,34.59,0,0,1,401.15,365.65Z" style="fill:#fff"></path><path d="M386,370l-.24-1,2.55-.71c3.43-1,6.86-2,10.26-3.08,1.95-.61,3.87-1.25,5.76-2l.19-.06c.15-.07.31-.12.47-.18l.49-.2a43.34,43.34,0,0,0,11.88-6.55c1.18-1,2.33-2,3.45-3,.11-.1.21-.21.32-.3l.09-.09c.11-.09.22-.2.33-.31l.25-.24c3.39-3.25,6.53-6.79,9.73-10.19.91-1,1.83-2,2.76-2.92a1.45,1.45,0,0,1,.16-.18l.2-.22c4.08-4.29,8.2-8.55,12.15-12.94.14-.17.37.08.23.24-2.61,2.95-5.15,6-7.71,9l-1,1.2-2,2.37c-1.36,1.57-2.72,3.13-4.11,4.66A144.69,144.69,0,0,1,419.91,356c-.33.28-.66.56-1,.84s-.42.35-.63.51l-.74.59A46.37,46.37,0,0,1,403,365.06l-1.09.34-.51.17-.27.08-.35.11h0l-.26.07-.94.29c-3.42,1-6.86,2-10.29,2.92C388.21,369.34,387.11,369.67,386,370Z" style="fill:#FFC727"></path><path d="M441.35,325.07c2.91-3.57,9.45-8.86,14.29-5.9a4.32,4.32,0,0,1,1.82,5.47c-1,2.46-3.58,4.1-5.76,5.37-5.82,3.39-11.91,6.2-17.49,10,0,.05-.48.32-.6.41s-.22-.11-.11-.19l.54-.37C436.05,334.83,437.9,329.31,441.35,325.07Z" style="fill:#FFC727"></path><path d="M434.2,340.05l.09-.09a44.7,44.7,0,0,1,4-3.67,93.8,93.8,0,0,1,9.31-6.43c1.23-.77,7.34-4.35,4.12-6-1.36-.71-3.28-.07-4.59.42a17.14,17.14,0,0,0-5.66,3.61c-3.28,3.08-5.33,7.09-7,11.19l-.23.56-.14.14a.43.43,0,0,0-.09.1.1.1,0,0,0,0,.07.16.16,0,0,0,.15.18A.12.12,0,0,0,434.2,340.05Zm.46-1.23a36.59,36.59,0,0,1,5.64-9.4,19,19,0,0,1,4.37-3.71,14.81,14.81,0,0,1,2.29-1.14,11.31,11.31,0,0,1,1.82-.57c1.36-.3,3-.12,3.33.65.43.94-.07,1.42-1,2.36a11.08,11.08,0,0,1-1,.89c-.91.69-1.88,1.3-2.84,1.89-1.61,1-3.2,2-4.76,3.06-1.06.71-2.1,1.46-3.1,2.24a47.64,47.64,0,0,0-4.95,4.36Z" style="fill:#fff"></path><path d="M55.44,335.13c2.71,2.5,5.26,5.18,7.77,7.89,1.43,1.53,2.83,3.08,4.27,4.62,1.57,1.69,3.06,3.57,5.27,4.4h0a1.38,1.38,0,0,1,.27.16l0,0a.27.27,0,0,1-.34.34l-.15-.05H72.5a8.64,8.64,0,0,1-2-.47,48,48,0,0,1-5.37-1.6,46.26,46.26,0,0,1-10.24-5.12,39,39,0,0,1-7.66-6.79c-1.79-2.08-4.48-5.15-5-7.95-.45-2.54,2.82-2,4.33-1.59C50,330,52.86,332.76,55.44,335.13Z" style="fill:#FFC727"></path><path d="M47.2,333.27c-.78,1.09,2.17,4.39,3.41,5.87a37.73,37.73,0,0,0,6.65,6.16,48.39,48.39,0,0,0,14.61,7l.63.19h.06l.14.05a.28.28,0,0,0,.35-.34c-.42-.19-.82-.4-1.21-.62s-.72-.39-1.06-.6c-3.78-2.26-7.06-5.38-10.28-8.36C56.72,339.16,48.24,331.84,47.2,333.27Zm24.14,18.45c.52.29,1.06.55,1.59.8-.42-.14-.85-.27-1.27-.42A53.26,53.26,0,0,1,58.73,346a38.46,38.46,0,0,1-6.22-5.17,35.22,35.22,0,0,1-2.82-3.29c-.36-.49-2.74-3.38-2.11-3.95.44-.4,3.17,1.38,3.23,1.41.54.35,1.08.73,1.6,1.12,1.09.8,2.13,1.66,3.15,2.53,2.22,1.89,4.33,3.92,6.48,5.89A50.73,50.73,0,0,0,71.34,351.72Z" style="fill:#fff"></path><path d="M75.92,323.89c2.47,4.78,3,10.28,3.12,15.58,0,2.84-.06,5.68-.09,8.52a38.15,38.15,0,0,0,.27,7.6c0,.11,0,.22.07.33a9,9,0,0,0,.67,2,.17.17,0,0,1,0,.14l.12.19a0,0,0,0,1-.07.06l-.18-.16h0a.15.15,0,0,1-.16-.1l0-.08-.17-.16c-4.15-3.82-6.47-10.3-8-15.5s-2.31-10.73-.94-16c.35-1.33.94-4.5,2.55-4.95S75.4,322.88,75.92,323.89Z" style="fill:#FFC727"></path><path d="M73.73,327c-1.63.27-1.28,4.74-1.23,5.83A56.74,56.74,0,0,0,74,342.61a51.21,51.21,0,0,0,5.41,15h0l.06.19.17.16a.2.2,0,0,0,0,.08.16.16,0,0,0,.16.1l-.06-.25c-.18-.66-.33-1.32-.47-2,0-.11-.05-.22-.07-.33a108.5,108.5,0,0,1-1.45-14.09,53.28,53.28,0,0,0-1.48-9.75C76.07,330.94,75.1,326.76,73.73,327Zm1.46,2.36c2.23,5.15,2.16,11.28,2.53,16.78a57.58,57.58,0,0,0,1.55,11,54.52,54.52,0,0,1-4.73-13.7,72.29,72.29,0,0,1-1.47-8.14,29.06,29.06,0,0,1-.25-4.48,11.7,11.7,0,0,1,.34-2.67C73.72,326.58,74.81,328.47,75.19,329.35Z" style="fill:#fff"></path><path d="M88.79,365.21a.29.29,0,0,1,0,.28h.11a.08.08,0,0,1,.09.08.08.08,0,0,1-.07.1c-6.39,1-13.5,1.3-19.79-.42a25.14,25.14,0,0,1-7.49-3.36c-1.56-1.06-4.71-3.18-4.89-5.29-.35-4.24,10.89.16,12.58.83,3.08,1.21,6.06,2.69,9.11,4,3.35,1.39,6.8,2.54,10.24,3.69A.26.26,0,0,1,88.79,365.21Z" style="fill:#FFC727"></path><path d="M88.78,365.2c-.34,0-.68-.06-1-.1a54.73,54.73,0,0,1-16.19-4.4,49.68,49.68,0,0,0-7.91-3c-.68-.16-3.18-1-2.78.65.21.83,4.33,3.21,5.45,3.73a34.11,34.11,0,0,0,8.07,2.54,56.35,56.35,0,0,0,14.15,1l.41,0a.08.08,0,0,0-.09-.08h-.1A.3.3,0,0,0,88.78,365.2Zm-12-.49a40.36,40.36,0,0,1-8.16-2,28.71,28.71,0,0,1-3.06-1.35A18.17,18.17,0,0,1,63.29,360c-1.73-1.26-2.08-1.72-1.93-2.06s.46-.32,1.86-.09a14.36,14.36,0,0,1,2.65.77c1.21.46,2.42,1,3.61,1.49,2.4,1,4.78,2.1,7.25,2.95a42,42,0,0,0,10.94,2.28A65.32,65.32,0,0,1,76.77,364.71Z" style="fill:#fff"></path><path d="M88.12,346.84a16.06,16.06,0,0,1,3.3,6c1.46,4.35,2,8.95,3.12,13.39.18.66.36,1.32.57,2,0,.07.46.8.41.76s-.23-.23-.58-.59h0c-1.73-1.82-6.88-7.4-8.85-11.18a33.18,33.18,0,0,1-3-7.41c-.28-1.23-.8-4,.42-4.95S87.29,346,88.12,346.84Z" style="fill:#FFC727"></path><path d="M85.5,347.92c-1.71.71,1.83,8.23,2.27,9.22a46.47,46.47,0,0,0,6.31,10.21c.28.35.57.7.86,1l.57.6a8.52,8.52,0,0,0-.41-.76c0-.11-.06-.23-.1-.34-.16-.55-.32-1.1-.45-1.63-1.13-3-2.2-6-3.39-8.92a42.91,42.91,0,0,0-3-6.18C87.9,350.72,86.25,347.6,85.5,347.92Zm1.4,1.55c3.83,5.5,5.22,12.11,7.75,18.21,0,.1.08.19.12.3-.1-.14-.22-.27-.32-.41a53.47,53.47,0,0,1-5.34-8.37,50.7,50.7,0,0,1-2.41-5.56,24.85,24.85,0,0,1-1.07-3.15c-.1-.47-.33-1.78,0-1.94S86.65,349.11,86.9,349.47Z" style="fill:#fff"></path><path d="M54.94,303.68c6,10.06,3,23,8.3,33.33l0,.05c.16.32.33.63.51.94a.21.21,0,0,1-.16.32.15.15,0,0,1-.16-.08l-.12-.23c-4.78-4.44-8.65-10.47-11.5-16.3-2.47-5.07-4.1-10.77-3.25-16.43.2-1.4.52-4.19,2.21-4.72S54.2,302.43,54.94,303.68Z" style="fill:#FFC727"></path><path d="M52.87,307.37c-.71.23-.8,1.28-.88,1.85a17.68,17.68,0,0,0-.09,4.3A29.31,29.31,0,0,0,54.09,322a61.6,61.6,0,0,0,7.12,13.31c.67.92,1.38,1.81,2.13,2.66.09.11.19.21.28.31a.22.22,0,0,0,.16-.32c-.18-.3-.33-.59-.5-.9a.19.19,0,0,1,0-.09,35.72,35.72,0,0,1-3.05-6.28,84.78,84.78,0,0,1-2.69-10.54C57.2,318.8,55.29,306.57,52.87,307.37Zm1.59,2.06c1.23,2.63,1.62,5.62,2.25,8.44s1.24,5.69,1.91,8.52A41.88,41.88,0,0,0,60.79,333a31.2,31.2,0,0,0,2.73,5.1,44.24,44.24,0,0,1-3.32-4.62l0-.06a82.23,82.23,0,0,1-4.72-8.95.61.61,0,0,0-.05-.12,36.72,36.72,0,0,1-2.87-8.42,21.61,21.61,0,0,1-.41-4.82c.09-1.83.35-3.3,1-3.33C53.52,307.74,54.1,308.65,54.46,309.43Z" style="fill:#fff"></path><path d="M55.69,324.31c1.65,2.91,3.37,5.79,5.1,8.66q1.22,2,2.45,4a.19.19,0,0,0,0,.09l.88,1.46c2.66,4.39,5.29,9,8.64,12.93a44.39,44.39,0,0,0,5.92,5.61c.23.17.45.35.67.53h0l.37.28.21.15c1.86,1.44,3.81,2.79,5.71,4.1,2.64,1.82,5.39,3.45,8.16,5a1,1,0,0,0,.24.15l.37.22.2.11.35.21c.89.51,1.78,1,2.66,1.56l-.56.8a64.36,64.36,0,0,1-8.4-4.55.91.91,0,0,1-.16-.11c-.27-.15-.53-.32-.79-.49l-1-.63c-.76-.5-1.52-1-2.26-1.52a67.42,67.42,0,0,1-12.25-10.14l-.29-.33-.12-.14-.21-.24-.32-.38-.56-.7-.16-.21a103.53,103.53,0,0,1-7.48-12c-.42-.74-.83-1.48-1.24-2.22l-.69-1.24-1-1.9,0-.06c-1.59-3-3.11-6-4.72-8.95C55.38,324.3,55.61,324.17,55.69,324.31Z" style="fill:#FFC727"></path></g><g id="freepik--character-3--inject-17"><path d="M351.88,180.91c-6.07,13.31-30.87,61.4-49.24,69.91-12.37,5.73-59.43-5-70.51-10.39-4.53-2.2,8.54-38.59,13.93-38.61,5.86,0,40.91,12.38,44.75,11.18s30.26-26.23,47-38.6C347.83,167,355.29,173.42,351.88,180.91Z" style="fill:#eb9481"></path><path d="M245.46,245c-8.81-1.07-37.44-12-42.59-15.44S183.59,215.2,185.8,211s6.61-1.35,6.61-1.35-5.82-6-2.63-9.59c2.56-2.87,8.95.83,8.95.83s-6-6.9-2.41-10.06c3.31-2.88,9.19,2.85,9.19,2.85s-4.46-6.29-.74-8.45c4.47-2.6,12.2,8.28,18.17,11.62,1.36.76,37.76,8.51,37.76,8.51Z" style="fill:#eb9481"></path><path d="M205.6,193.27c6.62,7.55,9.58,10.49,18.52,14.14.17.07.1.34-.09.28-9.07-2.77-12.84-6-18.83-14.17C204.91,193.13,205.29,192.92,205.6,193.27Z" style="fill:#263238"></path><path d="M198.82,200.85c6.64,7.77,10.86,10.29,19.94,14.8.13.06,0,.29-.1.23-9.28-3.68-14.52-6.24-20.14-14.88C198.26,200.61,198.52,200.5,198.82,200.85Z" style="fill:#263238"></path><path d="M192.86,209.86c7,7.06,11.43,10.28,20.8,13.53a.18.18,0,0,1-.09.35c-9.89-2.38-15.47-6.36-20.9-13.64C192.29,209.6,192.42,209.42,192.86,209.86Z" style="fill:#263238"></path><path d="M260.7,205.35s-9.92-6.09-14.48-9.22S230,182.4,225.47,183.86c-5.07,1.65,2,14.12,10.12,19.76,0,0-5,15.4,2.52,21.18,1.63,1.26,11.86,3.93,14,2.92Z" style="fill:#eb9481"></path><path d="M236.21,204.48c-2.16,5.93-2.61,14.24,1.25,19.2.11.15-.08.33-.21.2-4.87-4.77-4.44-14.38-2.18-19.56C235.5,203.32,236.77,203,236.21,204.48Z" style="fill:#263238"></path><path d="M260.7,205.35,245.46,245a10.8,10.8,0,0,0,9,8.4c7.84,1.32,39.74,4.52,50.33-2.3s36.49-43.59,46-66.1-10.63-13.45-14.18-10.65-45.1,36.87-46.78,37.25-14.74-5.18-20.54-6.46S260.7,205.35,260.7,205.35Z" style="fill:#37474f"></path><path d="M350.8,185c-9.49,22.51-35.38,59.28-46,66.1-7.57,4.88-26,4.63-38.81,3.61l85.91-83.31C353.82,173.15,354.09,177.16,350.8,185Z" style="fill:#263238"></path><path d="M404.89,299.1c.08-.1-99-23.51-99-23.51-.16-.44,20.66-80.47,34.37-100.28,4.65-6.72,17.69-10.05,28,.59C396.09,204.76,404.8,299.2,404.89,299.1Z" style="fill:#455a64"></path><path d="M381.92,186.56c26,35,44.61,87.89,30.28,97.69-14,9.58-54.76-3.33-78.46-25-3.82-3.51,18.9-35,23.72-32.28,6.73,3.82,14.4,11.19,15.07,11.22,1.44.08-8.48-34.63-11.33-51.87C357.23,162.29,372.16,173.43,381.92,186.56Z" style="fill:#eb9481"></path><path d="M399.64,263.26a39.87,39.87,0,0,0-4-6.15,49.06,49.06,0,0,0-4.72-5.55A80.05,80.05,0,0,0,372.26,238c-.09,0-.15.06-.07.11,1.12.73,12.74,9.17,17.28,13.53a71.91,71.91,0,0,1,4.87,5.31c.89,1,1.77,2.1,2.61,3.19s1.61,2.22,2.48,3.27A.12.12,0,0,0,399.64,263.26Z" style="fill:#263238"></path><path d="M360.05,228.56s-11.73-10.64-19.73-17.24c-4.46-3.68-12.67-9.31-17.19-10.51-6.75-1.8-36.14-5-37.08,2.09-.84,6.44,9.22,5.92,9.22,5.92s-11-.47-9.93,6.17,14.18,4.76,14.18,4.76-11.7-1.31-9.82,5.66c1.63,6.06,16.89,5.45,16.89,5.45s-12.13-2.73-11.07,3.64c1.17,7,24.18,9,24.18,9,7.91,11,15.88,18.09,22.5,21.84C343.78,266.23,360.05,228.56,360.05,228.56Z" style="fill:#eb9481"></path><path d="M296,219.76l3.09-.3a50.74,50.74,0,0,1,6-.37c2,0,3.92.15,5.89.33s4.13.58,6.2.72a.12.12,0,1,1,0,.23,55,55,0,0,0-6.16-.12c-2,0-4,0-6,.07s-3.93-.07-5.89-.09c-1,0-2,0-2.94.05a16.38,16.38,0,0,1-2.8,0c-.09,0-.09-.14,0-.17A12.84,12.84,0,0,1,296,219.76Z" style="fill:#263238"></path><path d="M293,208.77c1.68-.5,9.24-.94,11.19-.93a55.29,55.29,0,0,1,11.19,1.1.12.12,0,0,1,0,.23c-3.76,0-7.52,0-11.28-.07-1.84,0-10.19.16-11.07.06C292.77,209.14,292.79,208.82,293,208.77Z" style="fill:#263238"></path><path d="M298.53,230.15a80.68,80.68,0,0,1,10.54-.68,71.93,71.93,0,0,1,10.65,1.78c.13.05.11.25,0,.23-3.58-.32-7.15-.7-10.74-.85-1.75-.08-8.75,0-10.42-.18C298.39,230.43,298.39,230.19,298.53,230.15Z" style="fill:#263238"></path><path d="M361.81,227.91l-26,41.51s3.09,6.72,8.76,9.6a130.89,130.89,0,0,0,38.06,11.82c11.43,1.65,24.54.47,30.12-4.24,16.89-14.27-13.56-79.94-28.25-98.56s-28.63-25.73-23.32,4.21,9.1,42.37,9.1,42.37S366.3,227.72,361.81,227.91Z" style="fill:#37474f"></path><path d="M344.09,270.66c.73-1.21,1.37-2.47,2.12-3.66s1.47-2.31,2.23-3.45c1.55-2.32,3.11-4.62,4.67-6.92,3.12-4.61,6.28-9.22,9.56-13.72q1.41-1.91,2.8-3.83a31.34,31.34,0,0,1,2.79-3.59.09.09,0,0,1,.14.11,28.35,28.35,0,0,1-2.16,3.64L364,242.7q-2.25,3.51-4.58,7c-3.07,4.55-6.16,9.08-9.31,13.57-.91,1.3-1.83,2.58-2.77,3.86s-2,2.48-3,3.74C344.27,271,344,270.86,344.09,270.66Z" style="fill:#263238"></path><path d="M390.36,264.46a39.68,39.68,0,0,0-2.49-6.92,48.38,48.38,0,0,0-3.32-6.49,80.37,80.37,0,0,0-15-17.5.07.07,0,1,0-.09.1c.92,1,10.29,11.85,13.71,17.14,1.3,2,2.41,4.15,3.51,6.29.63,1.22,1.24,2.45,1.81,3.7s1,2.52,1.65,3.75C390.19,264.66,390.4,264.6,390.36,264.46Z" style="fill:#263238"></path><path d="M360.73,229.13a6.2,6.2,0,0,1,1.15-1.68c.48.08,4.25-.7,7.83,6.06-.65-1.95-1-3.41-1.54-5.4q-.84-3.27-1.64-6.56c-.85-3.49-1.67-7-2.37-10.54-.79-1.8-1.47-3.64-2.14-5.48a.06.06,0,0,1,.11-.05c.58,1.27,1.17,2.55,1.71,3.84-.06-.33-.13-.66-.19-1-.44-2.53-.89-5.07-1.22-7.62a.08.08,0,0,1,.15,0c2.21,8.72,3.9,17.56,6,26.31.59,2.47,1.78,7.76,1.76,7.76a45.24,45.24,0,0,0-5-5.22,7,7,0,0,0-3.27-1.37,8,8,0,0,0-1.07,1.1C360.86,229.36,360.67,229.27,360.73,229.13Z" style="fill:#263238"></path><path d="M338.88,263.94c.25-.3.48-.11.26.21-1.16,1.7-2.1,3.37-3.15,5.05,2.89,4.05,4.27,7.56,11.08,10.64,13.54,6.11,30.1,10.91,44.8,11.13a55.93,55.93,0,0,0,19.46-3.32c.08,0,.07.13,0,.12s-7.31,4.44-19.18,4.77c-8.94.25-31.18-3.49-46.11-11.37-6.28-3.31-8.85-7.22-11.25-11.6A47,47,0,0,1,338.88,263.94Z" style="fill:#263238"></path><path d="M361.5,173.11c-.77,1.72-11.61,11.68-19.73,9.7-2.65-.66.27-15.25.27-15.25l0-1.12-.42-15.77,22.83-8.92S361.81,172.39,361.5,173.11Z" style="fill:#eb9481"></path><path d="M341.58,150.67l.43,15.76,0,1.14s-.53,2.64-.93,5.72c11.49.52,18.25-6.87,21.62-12.22.8-8.84,1.68-19.32,1.68-19.32Z" style="fill:#263238"></path><path d="M319.86,121.76c-11.09,31.92,6.77,42.17,13.66,44.56,6.25,2.16,27.81,8.74,42.14-21.86s3-45.85-11-51.56S331,89.84,319.86,121.76Z" style="fill:#eb9481"></path><path d="M329.38,146.62A8.91,8.91,0,0,0,332,150.3a4,4,0,0,0,2.3.84c1.83.06,2.33-1.49,2.41-2.91a9.6,9.6,0,0,0-.16-2.26A11.59,11.59,0,0,1,329.38,146.62Z" style="fill:#263238"></path><path d="M332,150.3a4,4,0,0,0,2.3.84c1.83.06,2.33-1.49,2.41-2.91C334.87,147.88,332.7,148.58,332,150.3Z" style="fill:#ff9cbd"></path><path d="M327,127.81c-3.41-1.09-5.33,5.81-2.17,6.82S329.82,128.72,327,127.81Z" style="fill:#263238"></path><path d="M324.88,124.78a20.22,20.22,0,0,0,2.33.13,3.79,3.79,0,0,0,2.4-.31,1.21,1.21,0,0,0,.39-1.42,3,3,0,0,0-2.66-1.44,4.42,4.42,0,0,0-3.06.77A1.29,1.29,0,0,0,324.88,124.78Z" style="fill:#263238"></path><path d="M346.93,129.45c-.74-.3-1.37-.7-2.08-1.07a3.76,3.76,0,0,1-1.91-1.48,1.2,1.2,0,0,1,.39-1.42,3,3,0,0,1,3,.1,4.39,4.39,0,0,1,2.24,2.21A1.28,1.28,0,0,1,346.93,129.45Z" style="fill:#263238"></path><path d="M336.56,152.13c-.65.42-1.34,1-2.17.93a6.15,6.15,0,0,1-2.31-1.06.08.08,0,0,0-.12.09,3.09,3.09,0,0,0,2.61,1.81,2.43,2.43,0,0,0,2.18-1.62C336.82,152.15,336.65,152.07,336.56,152.13Z" style="fill:#263238"></path><path d="M329.41,141.61s-1.35,3.2-1.77,4.77c0,.15.33.32.85.49,0,0,0,0,.06,0a7.7,7.7,0,0,0,8-.85.17.17,0,0,0-.17-.28,11.68,11.68,0,0,1-7.32.13c0-.46,2.5-5.46,2.24-5.48-1.09-.11-3-.13-3.77-.15.83-2.1,3.47-7.93,5-11.76.09-.24-.27-.41-.39-.21a109.81,109.81,0,0,0-6.54,12.88C325.39,141.52,328.71,141.71,329.41,141.61Z" style="fill:#263238"></path><path d="M343.09,131.87c3.5.72,1.8,7.68-1.45,7S340.15,131.26,343.09,131.87Z" style="fill:#263238"></path><path d="M374.13,146.76c-9.31-1.11-12-13-8.19-21.38,0,0-25-1.41-22.48-21.25a19.58,19.58,0,0,1-17.55,5.78l-4.11,6.71c-2.37-1.2-3.68-8.83,3.52-13.25,0,0,2.28-9.7,10.6-14.19a13.6,13.6,0,0,1,14.75.73,20.58,20.58,0,0,1,15.42-.83C374.87,92,377,100.86,377,100.86s11.66,4.62,12.09,13.61a18.16,18.16,0,0,1-5.12,13.9s2.39,4-.55,11C381.54,143.9,376.92,147.09,374.13,146.76Z" style="fill:#263238"></path><path d="M344.33,102.49a24,24,0,0,0-1,4.78,19.77,19.77,0,0,0,0,4.8,12.55,12.55,0,0,0,4.32,8.12c2.31,2.19,5.52,3.08,8.57,4,1.59.25,3.18.62,4.8.78s3.24.25,4.88.43c-1.63.08-3.28.09-4.93.14s-3.28-.33-4.93-.49c-3.2-.74-6.55-1.66-9.14-4a13.11,13.11,0,0,1-4.44-8.89A19.89,19.89,0,0,1,344.33,102.49Z" style="fill:#263238"></path><path d="M329.58,111.43a25.69,25.69,0,0,0,8.17-2.58,15.51,15.51,0,0,0,3.43-2.44,19.09,19.09,0,0,0,2.76-3.32,10.67,10.67,0,0,1-2.12,3.93,11.4,11.4,0,0,1-3.52,2.84,14.33,14.33,0,0,1-4.27,1.47A13.57,13.57,0,0,1,329.58,111.43Z" style="fill:#263238"></path><path d="M368.58,145.29s9.73-8.41,13.73-4.69-5.14,17.19-11.1,17.84a5.72,5.72,0,0,1-6.67-4.86Z" style="fill:#eb9481"></path><path d="M379.6,144.4c.09,0,.07.14,0,.15-4.21.58-7.12,3.61-9.46,6.93,1.49-1.13,3.24-1.51,4.79.32.08.1-.05.23-.16.18a3.51,3.51,0,0,0-4.05.24,16.88,16.88,0,0,0-2.56,2.58c-.27.29-.84-.05-.61-.41l.06-.08C368.73,149.42,374.24,143.56,379.6,144.4Z" style="fill:#263238"></path></g><g id="freepik--character-2--inject-17"><path d="M304.48,212.24c-.21,21.84-4.92,102.46-24.82,125.18-13.41,15.31-53,34.51-68,38.11-7.31,1.75-29.7-59.85-22.37-63.14,8-3.59,46.85-15.42,51.36-19.39s25.39-54.11,40.72-81.12C290.53,195.7,304.6,200,304.48,212.24Z" style="fill:#ad6359"></path><path d="M214.2,374.24c-11.47,6.6-57.22,16.47-66.44,17s-35.84.17-37-6.84,6.68-7.53,6.68-7.53-12.32-1.95-11.72-9.1c.48-5.71,11.42-7,11.42-7s-13.38-2.84-11.88-9.86c1.37-6.4,13.53-4.83,13.53-4.83s-11-3.51-8.45-9.42c3-7.11,22-1,32.1-2.4,2.3-.31,52.69-23.65,52.69-23.65Z" style="fill:#ad6359"></path><path d="M118.56,345.51c14.67,3.1,20.83,3.95,34.77.31.27-.08.44.31.16.41-13.33,4.82-20.71,4.33-35.18-.05C117.61,346,117.88,345.37,118.56,345.51Z" style="fill:#263238"></path><path d="M117.26,360.64c14.89,3.33,22.18,2.56,37.06-.19.21,0,.3.31.09.37-14.38,3.92-22.93,5.56-37.38.28C116.38,360.86,116.58,360.49,117.26,360.64Z" style="fill:#263238"></path><path d="M118.21,376.74c14.65,2.18,22.85,2,37-2.48a.27.27,0,0,1,.2.51c-13.94,6-24.16,6.26-37.17,2.42C117.3,376.93,117.28,376.6,118.21,376.74Z" style="fill:#263238"></path><path d="M195.16,310.6s-17.29,1.61-25.54,2-31.67-1.86-35.75,3.93c-4.59,6.51,15,15.05,29.76,14.53,0,0,7.83,22.87,22,23,3.07,0,17.68-5.93,19.31-9.05Z" style="fill:#ad6359"></path><path d="M165.15,331.5c2.73,9,9.63,19.33,18.68,21.8a.21.21,0,0,1-.07.42c-10.08-1.33-18.17-13.19-20.12-21.39C163.26,330.75,164.44,329.17,165.15,331.5Z" style="fill:#263238"></path><path d="M221.88,297.6l21.43,67.9s29.15-13.35,39.47-29.07,23.37-81.55,22.68-118-22.64-11.91-25.79-5.93-39.18,77.59-41.26,79.13S221.88,297.6,221.88,297.6Z" style="fill:#FFC727"></path><path d="M270.65,283.34a19.91,19.91,0,0,0-2.9-4.64,18.78,18.78,0,0,0,1.61,5.22,19.21,19.21,0,0,0,2.9,4.65A19.38,19.38,0,0,0,270.65,283.34Zm-25.88,54a19,19,0,0,0-2.9-4.64,21.38,21.38,0,0,0,4.52,9.87A18.74,18.74,0,0,0,244.77,337.35Zm44.55-78.93a20,20,0,0,0-4.64,2.91,21.28,21.28,0,0,0,9.86-4.52A19.31,19.31,0,0,0,289.32,258.42Zm-44.69,23.11-.6.3h0q-.51,1-1,1.86c.74-.26,1.47-.55,2.18-.87a19.21,19.21,0,0,0,4.65-2.9A19.06,19.06,0,0,0,244.63,281.53Zm31.7,38a20.23,20.23,0,0,0-4.65,2.91,19.42,19.42,0,0,0,5.23-1.62,19,19,0,0,0,4.64-2.9A19,19,0,0,0,276.33,319.54Zm20.09-113.26a19.26,19.26,0,0,0-4.65,2.93,19.24,19.24,0,0,0,5.25-1.64,18.63,18.63,0,0,0,4.62-2.9A19.2,19.2,0,0,0,296.42,206.28Zm-25.89,24.13v0a16,16,0,0,0-.39,2.52,19.39,19.39,0,0,0,2.58-4.85A22.58,22.58,0,0,0,273.8,224ZM250.85,308.1a18.42,18.42,0,0,0-1.21,5.32,19.52,19.52,0,0,0,2.55-4.84,18.74,18.74,0,0,0,1.21-5.33A19.61,19.61,0,0,0,250.85,308.1Zm-22.51,10,.39,1.22a14.52,14.52,0,0,0,2,.28A14.76,14.76,0,0,0,228.34,318.07Zm30.75-64.82-.18-.06c-.22.42-.43.84-.64,1.26l.32.14a19.75,19.75,0,0,0,5.35,1.21A19.61,19.61,0,0,0,259.09,253.25Zm35.21,37.41a14.79,14.79,0,0,0,2.52,1.56c.09-.37.16-.74.24-1.11A16.73,16.73,0,0,0,294.3,290.66Z" style="fill:#fff"></path><polygon points="204.45 298.02 221.56 292.97 244.92 369.78 228.87 375.76 204.45 298.02" style="fill:#FFC727"></polygon><path d="M234.05,331.12q2.25,8,4.42,16.06c1.44,5.33,3.08,10.7,4.15,16.12a.21.21,0,0,1-.39.13c-1.91-5-3.34-10.24-4.91-15.35q-2.5-8.13-4.92-16.3c-3.21-10.76-6-21.6-8.65-32.5-.07-.27.29-.33.37-.08C227.66,309.78,231,320.37,234.05,331.12Z" style="fill:#263238"></path><path d="M282.78,336.43c-10.32,15.72-39.47,29.07-39.47,29.07l-8.78-27.81L278.2,215.35c.7-1.37,1.2-2.35,1.47-2.86,3.15-6,25.1-30.54,25.79,5.93S293.1,320.71,282.78,336.43Z" style="opacity:0.1"></path><path d="M252.41,391.27c2.51,2.69,139.53-39.4,139.53-39.4,2.22-2.75-23.62-122.39-60.23-150.85-7.87-6.11-35.62-4-39.39-1.73-8.73,5.17-16.5,15.36-22.18,33.54C258.76,269.21,250.22,388.91,252.41,391.27Z" style="fill:#FFC727"></path><path d="M299.63,291.9a20,20,0,0,0-5.33-1.24,18.19,18.19,0,0,0,4.82,2.55,20,20,0,0,0,5.35,1.24A18.74,18.74,0,0,0,299.63,291.9Zm42.09-50.59a20.22,20.22,0,0,0-5.32-1.24,17.75,17.75,0,0,0,4.82,2.55,20,20,0,0,0,5.35,1.24A19,19,0,0,0,341.72,241.31ZM328.24,352a19.19,19.19,0,0,0-5.35-1.21,18.74,18.74,0,0,0,4.84,2.55,20,20,0,0,0,5.35,1.24A19.68,19.68,0,0,0,328.24,352Zm36.09-46.25a18.83,18.83,0,0,0-5.33-1.22,19,19,0,0,0,4.85,2.55,19.49,19.49,0,0,0,5.32,1.24A18.49,18.49,0,0,0,364.33,305.77Zm-87,46.25a19.15,19.15,0,0,0-5.32-1.21,18.63,18.63,0,0,0,4.82,2.55,19.79,19.79,0,0,0,5.35,1.24A19.39,19.39,0,0,0,277.36,352Zm85.53,8.19c-.06.18-.13.36-.19.55l1.65-.5a18.39,18.39,0,0,0,1.09-4.9A19.28,19.28,0,0,0,362.89,360.21ZM303.3,330.42a18.74,18.74,0,0,0-1.21,5.33,19.1,19.1,0,0,0,2.55-4.85,19.46,19.46,0,0,0,1.21-5.32A20.06,20.06,0,0,0,303.3,330.42Zm18.92-61.69a18.85,18.85,0,0,0-1.21,5.35,20.06,20.06,0,0,0,2.55-4.84,19.22,19.22,0,0,0,1.21-5.33A19.77,19.77,0,0,0,322.22,268.73Zm9.64-56.56a19,19,0,0,0-1.21,5.35,20,20,0,0,0,2.55-4.85,18.88,18.88,0,0,0,1.21-5.32A19.93,19.93,0,0,0,331.86,212.17Zm-58.15,10.89c-1.26,2.95-2.44,6.17-3.55,9.7v0a1,1,0,0,0,0,.17,19.39,19.39,0,0,0,2.58-4.85,19.75,19.75,0,0,0,1.21-5.35A3.46,3.46,0,0,0,273.71,223.06Zm22.71-16.78a19.26,19.26,0,0,0-4.65,2.93,19.24,19.24,0,0,0,5.25-1.64,18.63,18.63,0,0,0,4.62-2.9A19.2,19.2,0,0,0,296.42,206.28Zm49,123.64a19,19,0,0,0-4.64,2.9A18.47,18.47,0,0,0,346,331.2a19,19,0,0,0,4.64-2.9A19.09,19.09,0,0,0,345.45,329.92Zm-69.12-10.38a20.23,20.23,0,0,0-4.65,2.91,19.42,19.42,0,0,0,5.23-1.62,19,19,0,0,0,4.64-2.9A19,19,0,0,0,276.33,319.54Zm-15.08,55.38a20.23,20.23,0,0,0-4.65,2.91,19.42,19.42,0,0,0,5.23-1.62,19,19,0,0,0,4.64-2.9A19,19,0,0,0,261.25,374.92Zm28.07-116.5a20,20,0,0,0-4.64,2.91,21.28,21.28,0,0,0,9.86-4.52A19.31,19.31,0,0,0,289.32,258.42Zm70.56,17.44a19.59,19.59,0,0,0-2.9-4.64,19.46,19.46,0,0,0,1.62,5.22,19,19,0,0,0,2.9,4.64A18.77,18.77,0,0,0,359.88,275.86Zm-89.23,7.48a19.91,19.91,0,0,0-2.9-4.64,18.78,18.78,0,0,0,1.61,5.22,19.21,19.21,0,0,0,2.9,4.65A19.38,19.38,0,0,0,270.65,283.34ZM306.13,373a19.91,19.91,0,0,0-2.9-4.64,18.78,18.78,0,0,0,1.61,5.22,21.63,21.63,0,0,0,2.13,3.7l.57-.17A21.44,21.44,0,0,0,306.13,373Zm73.41-39.57a19.88,19.88,0,0,0-2.9-4.62,19.4,19.4,0,0,0,1.62,5.23,19,19,0,0,0,2.9,4.64A19,19,0,0,0,379.54,333.45Zm-45.08-31.59a20,20,0,0,0-2.9-4.61,19.42,19.42,0,0,0,1.61,5.22,19,19,0,0,0,2.91,4.64A19.67,19.67,0,0,0,334.46,301.86ZM309,236.74a19,19,0,0,0-2.9-4.64,18.47,18.47,0,0,0,1.62,5.22,19.85,19.85,0,0,0,2.9,4.65A18.39,18.39,0,0,0,309,236.74Z" style="fill:#fff"></path><path d="M318.9,221.81c3.75,13.11,40.62,108.11,40.56,113.07,0,0,48.16,31.43,57.09.18,5.8-20.32-50.05-103.95-77.43-128.73C326.54,195,311.05,194.3,318.9,221.81Z" style="fill:#d3766a"></path><path d="M318.9,221.81c3.75,13.11,40.62,108.11,40.56,113.07,0,0,48.16,31.43,57.09.18,5.8-20.32-50.05-103.95-77.43-128.73C326.54,195,311.05,194.3,318.9,221.81Z" style="fill:#FFC727"></path><path d="M341.72,241.31a20.22,20.22,0,0,0-5.32-1.24,17.75,17.75,0,0,0,4.82,2.55,20,20,0,0,0,5.35,1.24A19,19,0,0,0,341.72,241.31Zm70.72,95.46a20,20,0,0,0-5.32-1.24,17.89,17.89,0,0,0,4.82,2.55,27.31,27.31,0,0,0,3.12.92q.21-.42.39-.87A23.91,23.91,0,0,0,412.44,336.77Zm-48.11-31a18.83,18.83,0,0,0-5.33-1.22,19,19,0,0,0,4.85,2.55,19.49,19.49,0,0,0,5.32,1.24A18.49,18.49,0,0,0,364.33,305.77Zm25.28-20.59a18.69,18.69,0,0,0-1.21,5.35,20.31,20.31,0,0,0,2.55-4.85,19.23,19.23,0,0,0,1.21-5.32A19.41,19.41,0,0,0,389.61,285.18Zm-57.75-73a19,19,0,0,0-1.21,5.35,20,20,0,0,0,2.55-4.85,18.88,18.88,0,0,0,1.21-5.32A19.93,19.93,0,0,0,331.86,212.17Zm43.8,38.25c-.4.15-.79.32-1.18.49a19.91,19.91,0,0,0-4.64,2.9,18.78,18.78,0,0,0,5.22-1.61c.46-.22.92-.45,1.37-.69Zm28.94,61.47a20.18,20.18,0,0,0-4.65,2.9,18.74,18.74,0,0,0,5.23-1.61,19,19,0,0,0,4.64-2.9A19.2,19.2,0,0,0,404.6,311.89Zm-44.72-36a19.59,19.59,0,0,0-2.9-4.64,19.46,19.46,0,0,0,1.62,5.22,19,19,0,0,0,2.9,4.64A18.77,18.77,0,0,0,359.88,275.86Zm19.66,57.59a19.88,19.88,0,0,0-2.9-4.62,19.4,19.4,0,0,0,1.62,5.23,19,19,0,0,0,2.9,4.64A19,19,0,0,0,379.54,333.45Z" style="fill:#fff"></path><path d="M336.59,272.21c-1.94-3.18-3.71-6.49-5.44-9.77a.12.12,0,0,1,.2-.12c1.42,2.24,2.85,4.5,4.21,6.8-.2-.61-.42-1.22-.61-1.83-1.48-4.66-3-9.32-4.24-14a.15.15,0,0,1,.28-.08c6.38,15.85,21.93,60.15,21.88,60.17s.57,2.34-.91-.74C350.89,310.39,338.79,278.68,336.59,272.21Z" style="fill:#263238"></path><path d="M335.66,387.14c-21.87,9.85-46.73,17.37-71.26,12.32a12.38,12.38,0,0,1-7.08-4c-11-2.07-13.37-7.9-13.37-7.9-9.69-5.07-11.26-11.37-11.26-11.37s-12.93-2.57-12.67-10.64c.26-9.05,18.36-3.67,30.13-6.8,27-7.17,63.28-24.9,70.85-27.74Z" style="fill:#ad6359"></path><path d="M283.69,371.11c-8,2-15.77,4.08-24,4.94-9,.95-17.82.35-26.81,0a.22.22,0,0,0,0,.43c16.17,3.28,35.6,1.09,50.91-5C284.15,371.33,284.09,371,283.69,371.11Z" style="fill:#263238"></path><path d="M290.38,386.76c-7.87,1.47-21.71,4-46.4.56-.08,0-.12.12,0,.14,15.74,4.34,30.9,4,46.51-.33C290.93,387,290.9,386.66,290.38,386.76Z" style="fill:#263238"></path><path d="M293.82,395.23c-13.47,2-22.22,1.54-36.44.2-.08,0-.12.13,0,.15,16,3.21,22.17,2.57,36.6.1C294.45,395.6,294.34,395.15,293.82,395.23Z" style="fill:#263238"></path><path d="M282.09,348.08c3.14-2.33,1.94-4-5-4.2s-34.6,4.89-35.56-4.91,38.16-16.41,49.7-15.19S321,331,321,331C313.64,333.84,296.45,342.37,282.09,348.08Z" style="fill:#ad6359"></path><path d="M254.46,357.56a45.9,45.9,0,0,1-6.78,1.49,59,59,0,0,1-6.92.26c-2.33,0-4.65,0-7,.05s-4.62.06-7,.26a13.33,13.33,0,0,0-3.53.83,7.43,7.43,0,0,0-3.07,2.13,4.87,4.87,0,0,0-1,3.67,7.73,7.73,0,0,0,1.4,3.43,14.55,14.55,0,0,0,5.43,4.61,22.21,22.21,0,0,0,6.72,2.12l-.16-.16a8.35,8.35,0,0,0,1,2.24,11,11,0,0,0,1.49,1.9,12.12,12.12,0,0,1-1.3-2,8.2,8.2,0,0,1-.8-2.2l0-.13-.14,0a24.54,24.54,0,0,1-6.41-2.41,14.46,14.46,0,0,1-4.94-4.51,6.66,6.66,0,0,1-1.18-3,3.67,3.67,0,0,1,.85-2.83c1.36-1.6,3.67-2.23,5.86-2.53,4.55-.38,9.25-.36,13.87-.6a53.14,53.14,0,0,0,7-.58A39.55,39.55,0,0,0,254.46,357.56Z" style="fill:#263238"></path><path d="M321.38,330.42c-6.19,4.57-12.69,62.39-1.55,60.37,52.39-9.5,87.2-39.77,93.38-48.29,8.11-11.17,1.19-27-6.79-31.19C394.85,305.17,327.51,325.9,321.38,330.42Z" style="fill:#ad6359"></path><path d="M354.74,318l19.94,57.22s42-23.56,42.33-41.64-7.31-25.33-23.11-23.77S354.74,318,354.74,318Z" style="fill:#FFC727"></path><path d="M379.54,333.45a19,19,0,0,1,1.62,5.25,19,19,0,0,1-2.9-4.64,19.4,19.4,0,0,1-1.62-5.23A19.88,19.88,0,0,1,379.54,333.45Z" style="fill:#FFC727"></path><path d="M394.31,357a18.88,18.88,0,0,1,5.22-1.62,21.26,21.26,0,0,1-9.87,4.52A19.21,19.21,0,0,1,394.31,357Z" style="fill:#FFC727"></path><path d="M407.91,311.71a25.6,25.6,0,0,1-2.73,1.47,18.74,18.74,0,0,1-5.23,1.61,20.18,20.18,0,0,1,4.65-2.9c.65-.29,1.31-.56,2-.79A12.32,12.32,0,0,1,407.91,311.71Z" style="fill:#FFC727"></path><path d="M416,338.45a7.23,7.23,0,0,1-.26.68,24.36,24.36,0,0,1-3.81-1.05,17.89,17.89,0,0,1-4.82-2.55,20,20,0,0,1,5.32,1.24A21.47,21.47,0,0,1,416,338.45Z" style="fill:#FFC727"></path><path d="M379.54,333.45a19.88,19.88,0,0,0-2.9-4.62,19.4,19.4,0,0,0,1.62,5.23,19,19,0,0,0,2.9,4.64A19,19,0,0,0,379.54,333.45Zm27-22.35c-.67.23-1.33.5-2,.79a20.18,20.18,0,0,0-4.65,2.9,18.74,18.74,0,0,0,5.23-1.61,25.6,25.6,0,0,0,2.73-1.47A12.32,12.32,0,0,0,406.58,311.1ZM394.31,357a19.21,19.21,0,0,0-4.65,2.9,21.26,21.26,0,0,0,9.87-4.52A18.88,18.88,0,0,0,394.31,357Zm18.13-20.21a20,20,0,0,0-5.32-1.24,17.89,17.89,0,0,0,4.82,2.55,24.36,24.36,0,0,0,3.81,1.05,7.23,7.23,0,0,0,.26-.68A21.47,21.47,0,0,0,412.44,336.77Z" style="fill:#fff"></path><polygon points="339.75 317.39 354.99 312.54 377.43 380.89 363.16 386.57 339.75 317.39" style="fill:#FFC727"></polygon><path d="M366.93,346.46q2.16,7.16,4.27,14.31c1.39,4.75,3,9.53,4,14.36.05.22-.26.35-.35.13-1.81-4.44-3.19-9.11-4.7-13.66q-2.42-7.25-4.74-14.51c-3.08-9.58-5.8-19.23-8.38-28.95-.07-.24.25-.29.33-.07C360.78,327.47,364,336.9,366.93,346.46Z" style="fill:#263238"></path><path d="M341.56,322.73c-.71-1.74-1.38-3.5-2.06-5.26l-.09-.24.26-.09c5-1.83,10.05-3.56,15.11-5.25l.61-.2.23.61,1.85,4.9-.87-.46c6.11-1.67,12.26-3.16,18.47-4.42,3.1-.63,6.22-1.2,9.36-1.65a73.23,73.23,0,0,1,9.47-.85c-3.15.39-6.24,1-9.33,1.66s-6.16,1.35-9.23,2.09c-6.14,1.45-12.26,3-18.36,4.58l-.65.16-.22-.62-1.75-4.92.83.41c-5.1,1.55-10.21,3.06-15.36,4.46l.17-.33C340.53,319.11,341.06,320.91,341.56,322.73Z" style="fill:#263238"></path><path d="M293.22,232c9.91.81,24.13-16.31,28.82-29.14.32-.89-2.22-9.26-4.83-19.59-1.56-6.27-3.15-13.29-4.13-19.81-.2-1.33-39.34,16.11-39.34,16.11s6.08,13,7.73,24.4a14,14,0,0,1,.12,2.72c0,.12,0,.28,0,.45C281.54,212.35,283.63,231.21,293.22,232Z" style="fill:#ad6359"></path><path d="M320,193.91c-17.92,9-32.91,3.55-41.35-1.54a120.63,120.63,0,0,0-4.91-12.79s39.14-17.44,39.34-16.11c1,6.52,2.57,13.54,4.13,19.81C318.2,187.21,319.18,190.85,320,193.91Z" style="fill:#263238"></path><path d="M242.49,124.54c-1.61,15.34,14.18,55.69,26.3,63,17.56,10.62,42.26,7.15,50.25-13,7.75-19.57-13.75-71.78-26.9-78C272.76,87.31,244.85,101.88,242.49,124.54Z" style="fill:#ad6359"></path><path d="M289,143.77c-.06-.09-.16.22-.12.33,1.14,2.69,2,6-.13,7.81-.06.06,0,.19.09.14C291.64,150.47,290.47,146.14,289,143.77Z" style="fill:#263238"></path><path d="M285.43,141.87c-4.5,1.36-1.46,10.27,2.72,9S289.21,140.73,285.43,141.87Z" style="fill:#263238"></path><path d="M304.45,137.82c0-.12.26.05.3.17.85,2.79,2.3,5.84,5.11,5.91.09,0,.13.14,0,.16C306.7,144.67,304.81,140.6,304.45,137.82Z" style="fill:#263238"></path><path d="M305.93,134.09c4.33-1.85,7.72,6.94,3.71,8.65S302.31,135.64,305.93,134.09Z" style="fill:#263238"></path><path d="M280.52,139a37.16,37.16,0,0,0,3-2.39c1.16-.93,2.17-1.56,2.63-3a2,2,0,0,0-1.08-2.18c-1.74-.73-3.44.06-4.88,1.12a7.28,7.28,0,0,0-2.94,4.33C276.83,138.66,279.06,139.94,280.52,139Z" style="fill:#263238"></path><path d="M307.85,128.42a35.8,35.8,0,0,1-3.86.29c-1.48.1-2.65.33-4-.45a2,2,0,0,1-.68-2.34c.79-1.71,2.58-2.28,4.36-2.46a7.21,7.21,0,0,1,5.09,1.19C310.34,125.67,309.57,128.13,307.85,128.42Z" style="fill:#263238"></path><path d="M293.74,169.5c.88.42,1.84,1.08,2.87.83a7.86,7.86,0,0,0,2.74-1.71.1.1,0,0,1,.16.1,3.91,3.91,0,0,1-3,2.69,3.12,3.12,0,0,1-3-1.7C293.42,169.57,293.61,169.44,293.74,169.5Z" style="fill:#263238"></path><path d="M293.82,160.24a9.93,9.93,0,0,0,7.7,2,12.43,12.43,0,0,0,3.44-1,3.92,3.92,0,0,0,.62-.29l.57-.3a.73.73,0,0,0,.34-.81v0a1.75,1.75,0,0,0-.13-.28v0l-.09-.24c-.67-2.14-2-5.31-2-5.31.91.13,5.48.56,5-.53-3.69-9-7.79-19-13.37-27.21a.27.27,0,0,0-.48.24c3.21,8.8,7.93,17,11.29,25.76-1.43-.05-3.79-.23-4.9.17-.27.19,2.65,6.07,2.87,7.05,0,0,0,0,0,.11-3.42,1.68-6.48,1.52-10.77.3C293.73,159.82,293.58,160.08,293.82,160.24Z" style="fill:#263238"></path><path d="M303.33,160.63a11.74,11.74,0,0,1-3.28,5,5.33,5.33,0,0,1-3,1.23c-2.41.17-3.15-1.83-3.34-3.7a12.68,12.68,0,0,1,.08-3A15.3,15.3,0,0,0,303.33,160.63Z" style="fill:#263238"></path><path d="M300.05,165.62a5.33,5.33,0,0,1-3,1.23c-2.41.17-3.15-1.83-3.34-3.7C296.18,162.58,299.06,163.39,300.05,165.62Z" style="fill:#ff9cbd"></path><path d="M252.06,160.45c6.63,7.45,13.37-11.18,9.48-21.13-2.87-7.34-5.47-16.16-1.61-22.07,6.08-9.31,20.44-4.34,24.79-6.76,5.81-3.23,5.07-7.31,9-8.32s8.42,5.09,8.42,5.09S292,83.33,261.54,95.19C228.94,107.9,235.78,142.14,252.06,160.45Z" style="fill:#263238"></path><path d="M260.55,157.89s-12.32-11.44-17.71-6.76,5.9,22.68,13.65,23.8a7.46,7.46,0,0,0,8.94-6Z" style="fill:#ad6359"></path><path d="M246.2,156.21c-.11,0-.1.18,0,.2,5.47,1,9.12,5.05,12,9.48-1.9-1.54-4.15-2.12-6.26.2-.12.12.05.3.19.24a4.6,4.6,0,0,1,5.28.5,22.29,22.29,0,0,1,3.23,3.49c.33.4,1.09,0,.81-.5a.61.61,0,0,1-.07-.1C260.15,163.27,253.23,155.37,246.2,156.21Z" style="fill:#263238"></path><path d="M279.91,213.93c0-.08.14-.09.14,0,.25,7.51,1.36,24.86,14.38,22.66,5.24-.89,9.77-4.25,13.5-7.49a68.86,68.86,0,0,0,10.11-11,96.92,96.92,0,0,0,9-13.83c.1-.2.45,0,.34.18-2.65,4.83-4.76,9.79-7.93,14.4A59.17,59.17,0,0,1,308.62,231c-4,3.34-8.84,6.73-14.41,7.43a10.75,10.75,0,0,1-11.5-6.17C280.07,226.67,279.49,219.92,279.91,213.93Z" style="fill:#263238"></path></g><g id="freepik--characters-1--inject-17"><path d="M101.79,176.64c-9,20.36-23.15,43.28-22,66.31,1,18.05,11.42,34,23.83,46.46,27.33,27.37,72.77,47.15,108.55,23.37,14.29-9.51,26.42-36.13,15-52-5.89-8.15-14.78-12.95-22.72-18.79-10.5-7.68-16.4-17.53-17.6-30.54-2.36-25.35,5.78-40.09,12.67-63.86,1.26-4.41,1.89-9-.93-14.23a31.3,31.3,0,0,0-10.7-12.85,31.18,31.18,0,0,0-13.07-7.72c-10.6-2.88-24,2.73-34.14,5.52s-16.33,7.61-20.82,17.37C113.65,149.22,107.82,163,101.79,176.64Z" style="fill:#263238"></path><path d="M95.44,185.41c9.42-18.13,19.18-36,28.83-54,.06-.11.24,0,.18.07-7.51,15-14.8,30.17-22.51,45.12C94.38,191.2,85.6,205.74,79.36,221c-14,34.26,16,62.06,46,71.74,1.36.44.51,2.56-.86,2.07-26.07-9.33-53.45-30.08-50.38-61.14C75.82,216.68,87.74,200.23,95.44,185.41Z" style="fill:#263238"></path><path d="M198.57,145.11a.31.31,0,0,1,.57.23c-6.49,19.31-15.87,41.22-11.46,61.94A51.62,51.62,0,0,0,202.63,234c6,5.66,13.45,8.84,20.34,13.19,26.92,17,11.95,56.46-15.16,63.6-.57.15-.85-.82-.28-1,19.5-6.1,32.77-25.78,26.76-46.34-4.82-16.49-25.11-19.71-35.75-31.73C176.49,206.79,187.31,172.44,198.57,145.11Z" style="fill:#263238"></path><path d="M214.29,366.71C214.9,366.47,211,333,211,333s14.71-21.13,8.72-37.76c-3-8.42-31.34-58.39-44.25-69.61-12.11-10.54-32.13-2.53-39.41,4.6-23.06,22.61-43.4,80.25-56.78,132Z" style="fill:#FFC727"></path><path d="M167.33,221.34c-5,.19-9.92.28-14.76.27a36,36,0,0,1,4.52-.84q3.09,0,6.23-.12A22.57,22.57,0,0,1,167.33,221.34ZM185.22,237a358.34,358.34,0,0,1-55.48.34c-.21.26-.41.52-.61.79a360,360,0,0,0,56.66-.35Zm11.2,16.58c-27.93,3.29-55,2.37-77.42.12-.15.25-.3.51-.44.78,22.59,2.29,50.07,3.24,78.35-.13Zm10,16.49c-35.23,5.1-69.75,3.16-95.72-.12l-.36.78c26.13,3.32,61,5.3,96.53.11Zm9.14,16.44c-38.72,6.59-77.2,4.26-105,.56q-3.48-.46-6.83-1c-.11.26-.22.53-.32.79l4.83.69,2.19.3c28,3.72,66.63,6,105.55-.62Zm-102.5,18c-5.4-.72-10.58-1.51-15.49-2.34-.1.26-.19.52-.28.79,4.29.73,8.79,1.42,13.46,2.07l2.18.29c28.59,3.8,68.41,6.15,108.21-1.08a7.66,7.66,0,0,0,0-.83C181.39,310.7,141.62,308.36,113.06,304.56ZM115.58,322c-8.44-1.12-16.34-2.42-23.51-3.76-.09.26-.18.52-.26.79,6.59,1.24,13.79,2.43,21.46,3.49l2.18.3c26.88,3.57,63.67,5.86,101,.12l.39-.89C179.43,327.9,142.52,325.61,115.58,322Zm96.29,18.58c-34.83,4.46-68.64,2.24-93.77-1.1-11.51-1.53-22-3.39-31-5.24-.08.26-.15.53-.24.79,8.49,1.74,18.27,3.49,29,5l2.19.29c25.18,3.35,59.06,5.57,94,1.11Zm1.87,17.57c-34.6,4.33-68.15,2.12-93.12-1.2-14.67-2-27.69-4.43-38.14-6.75l-.21.8c10,2.21,22.23,4.56,36,6.47l2.19.3c25,3.33,58.64,5.54,93.32,1.19C213.79,358.73,213.76,358.46,213.74,358.18Z" style="fill:#fff"></path><path d="M197.73,320.94a74.36,74.36,0,0,0-19.12,3.19c-6.24,1.77-20,7.23-23.49,8.58a.07.07,0,0,0,0,.14,120.07,120.07,0,0,0,13.28-4c6.12-2.08,12.29-4,18.55-5.59a86.77,86.77,0,0,1,10.75-1.94A.19.19,0,0,0,197.73,320.94Z" style="fill:#263238"></path><path d="M209.12,324.23A59.44,59.44,0,0,0,189,326a.08.08,0,0,0,0,.15c3.32-.4,6.64-.79,10-1.07s6.72-.45,10.08-.67A.1.1,0,0,0,209.12,324.23Z" style="fill:#263238"></path><path d="M145.84,226c.39,2.82,11.71,26.48,26.65,25.09,6.28-.58,4-24.86,4-24.86l7.88-24.38L155,179.12S145.7,224.8,145.84,226Z" style="fill:#f7a9a0"></path><path d="M176.53,226.23a.15.15,0,0,0,0,.06c-16.79-6.92-23.22-19.39-25.63-26.95C153,188.78,155,179.12,155,179.12l29.41,22.72Z" style="fill:#263238"></path><path d="M212.72,171.11c-1.19,42-26.45,46-35.5,45.72-8.21-.24-36.14-2.11-39.3-44s16.73-54.56,35.54-55S213.91,129.15,212.72,171.11Z" style="fill:#f7a9a0"></path><path d="M205.16,164.51c-1-.22-1.82-.57-2.76-.88a4.65,4.65,0,0,1-2.65-1.43,1.49,1.49,0,0,1,.18-1.81,3.7,3.7,0,0,1,3.72-.5,5.43,5.43,0,0,1,3.21,2.25A1.6,1.6,0,0,1,205.16,164.51Z" style="fill:#263238"></path><path d="M176.16,165.31A27.87,27.87,0,0,0,179,165a4.64,4.64,0,0,0,2.88-.88,1.49,1.49,0,0,0,.17-1.82,3.68,3.68,0,0,0-3.54-1.21,5.39,5.39,0,0,0-3.59,1.58A1.59,1.59,0,0,0,176.16,165.31Z" style="fill:#263238"></path><path d="M181.82,173.69c0-.11-.24.12-.24.23-.12,2.86-.75,6.11-3.4,6.86-.08,0-.08.17,0,.16C181.38,180.74,182.16,176.41,181.82,173.69Z" style="fill:#263238"></path><path d="M179.5,170.52c-4.56-.69-5.61,8.47-1.39,9.12S183.32,171.1,179.5,170.52Z" style="fill:#263238"></path><path d="M177.64,170.8c-.86.43-1.75,1.25-2.72,1.24-1.13,0-1.87-1.08-2.49-2.08-.07-.11-.16,0-.17.08-.23,1.76.24,3.64,2.09,4.11,1.69.44,3.11-1,3.75-2.69C178.22,171.14,178,170.63,177.64,170.8Z" style="fill:#263238"></path><path d="M198.63,174.37c0-.1.21.17.19.28-.44,2.83-.46,6.14,2,7.39.07,0,.05.18-.05.16C197.69,181.37,197.76,177,198.63,174.37Z" style="fill:#263238"></path><path d="M201.52,171.72c4.61.21,3.85,9.41-.42,9.21S197.66,171.54,201.52,171.72Z" style="fill:#263238"></path><path d="M203.39,172.48c.69.55,1.33,1.5,2.2,1.63s1.82-.79,2.55-1.69c.07-.09.14,0,.13.11-.1,1.77-.83,3.55-2.55,3.75-1.56.18-2.57-1.43-2.84-3.21C202.83,172.74,203.12,172.26,203.39,172.48Z" style="fill:#263238"></path><path d="M179.6,195.58c.57.77,1.1,1.78,2.11,2a7.42,7.42,0,0,0,3.14-.22.1.1,0,0,1,.1.17,3.85,3.85,0,0,1-3.83.95,3,3,0,0,1-1.81-2.85C179.29,195.49,179.52,195.46,179.6,195.58Z" style="fill:#263238"></path><path d="M192.54,186.52s.15,4.3,0,6.31c0,.18-.52.22-1.2.19,0,0-.06,0-.08,0a9.56,9.56,0,0,1-8.88-4.51.2.2,0,0,1,.32-.24c2.44,2.21,5.31,3,8.44,3.38.2-.54-.5-7.37-.18-7.36,1.1,0,3.18,1,4.44,1.5-.06-9-1.55-17.88-1.47-26.82a.27.27,0,0,1,.53-.08c2.23,9.22,2.52,19.55,2.82,28.82C197.27,188.87,193.31,186.94,192.54,186.52Z" style="fill:#263238"></path><path d="M138.91,170.48c9.76-2,12.39-11,12.39-11,35.52-.9,47.24-22.94,47.24-22.94,6.83,18.55,12.92,21.72,13.92,24.51,0,0,2.94-16.08-2.44-28.34-4.77-10.85-17-22.46-36.16-20-10.88,1.4-20,10.82-20,10.82s-11.75,1.26-16.56,10.74C129.21,150.16,138.91,170.48,138.91,170.48Z" style="fill:#263238"></path><path d="M199.08,135.1A28.87,28.87,0,0,1,192,147.4a37.05,37.05,0,0,1-11.75,8.2l-3.37,1.28c-1.13.39-2.31.63-3.46,1a47,47,0,0,1-7.06,1.23c-2.37.21-4.76.17-7.13.26-2.37-.2-4.74-.36-7.09-.62,2.37-.07,4.73,0,7.08-.08,2.34-.24,4.69-.33,7-.66a52.09,52.09,0,0,0,13.44-3.68,38,38,0,0,0,11.54-7.66A33.32,33.32,0,0,0,199.08,135.1Z" style="fill:#263238"></path><path d="M140.41,168.62s-8.3-30,13.42-45.1c20.91-14.53,40.23-7.72,40.23-7.72s-21.06-11.54-45.33,2S136.59,162.08,140.41,168.62Z" style="fill:#FFC727"></path><path d="M145,173.43s-7.6-14.06-13.88-11.5-1.61,22.22,5,25.6a7.1,7.1,0,0,0,9.89-2.7Z" style="fill:#f7a9a0"></path><path d="M132.62,167.53a.1.1,0,0,0-.06.18c4.64,2.53,6.68,7.34,7.93,12.22-1.24-2-3.09-3.18-5.7-1.74-.14.08,0,.29.1.28a4.36,4.36,0,0,1,4.6,2.06,21,21,0,0,1,1.84,4.13c.18.46,1,.32.88-.2l0-.12C143,178.15,139.2,168.93,132.62,167.53Z" style="fill:#263238"></path><path d="M224.32,354.32c-.2.82,1.59,7.32.57,8.61s-34.28,3.06-35.14-1.28c-.92-4.69,14.27-9.48,13.84-10.26,0,0-4.38-7.36-5.81-20.71-1.18-11.07.39-16.7,6.83-26.39,9.33-14,31.32-7.8,31.6,7.74.18,10.22-10.8,20.16-11.79,24.06C223.15,341.07,224.38,354.12,224.32,354.32Z" style="fill:#263238"></path><path d="M197.33,304.34c.31-.65,11.54,1.45,23.74.16,14.81-1.57,23.8-6.15,24.27-5.29,1.82,3.29,5.26,15.43,2.35,25.5s-19.11,13.54-30.18,13-28.34-6.55-20.67-30.88A4.86,4.86,0,0,1,197.33,304.34Z" style="fill:#455a64"></path><path d="M245.65,299.82c-16.17,8.83-47,6.21-48.32,4.52,0,0,3.07-23.58,8.54-32.68.95-1.58,17.88-4.78,22.92-1.09C237.47,276.92,246,299.67,245.65,299.82Z" style="fill:#455a64"></path><path d="M217.77,360.57c-.5.67-1.41,7.36-2.85,8.14s-32.73-10.64-31.82-15c1-4.67,16.84-3.13,16.76-4,0,0-1.14-8.49,2.77-21.33,3.25-10.65,6.91-15.21,16.63-21.59,14.09-9.27,31.87,5.1,26,19.5-3.85,9.48-17.84,14.31-20.29,17.51C221.9,347.92,217.9,360.4,217.77,360.57Z" style="fill:#37474f"></path><path d="M205.75,272.84c0-.74-3.28-8.43-2.6-9s15.92-3.19,16.94-2,3.51,8.28,3.41,10.05-11.15,10.94-14.89,10.22S205.82,278.64,205.75,272.84Z" style="fill:#f7a9a0"></path><path d="M231.41,256.19c-3.1,10-11.6,14.8-16.6,16.54-7.75,2.71-29.57,6.23-36.29-7.36-4.55-9.19-5.14-31.93-1-38.57,5.79-9.26,24-15.45,38.69-10C228,221.17,234.5,246.2,231.41,256.19Z" style="fill:#f7a9a0"></path><path d="M199.32,239.59c-.65-.05-1.25-.19-1.9-.3a3.1,3.1,0,0,1-1.88-.67,1,1,0,0,1-.06-1.21,2.46,2.46,0,0,1,2.39-.7,3.61,3.61,0,0,1,2.32,1.15A1.06,1.06,0,0,1,199.32,239.59Z" style="fill:#263238"></path><path d="M179.2,242.51a18.06,18.06,0,0,0,1.75-.75,3.14,3.14,0,0,0,1.64-1.11,1,1,0,0,0-.24-1.18,2.41,2.41,0,0,0-2.46-.08,3.55,3.55,0,0,0-1.95,1.68A1,1,0,0,0,179.2,242.51Z" style="fill:#263238"></path><path d="M187,243.73c.19,4.08.26,2.6.27,6.69-.87.22-4.88,1-4.52,1.29a36.27,36.27,0,0,0,4.84,2.78c-.28,1.15-1.9,2.63-1.8,2.7,5.84,4.15,10.3.5,11.7-1.42.28-.39.14-.36,0-.18-1.49,1.47-6.16,4.11-10.26,1.28a5.81,5.81,0,0,0,1.17-2.57c0-.11-2.79-1.55-4-2.39,1.2-.29,2.7-.52,3.6-.72.21,0,.29-3.28-.65-7.52A.18.18,0,0,0,187,243.73Z" style="fill:#263238"></path><path d="M180.15,248.41a1.8,1.8,0,0,1-.4.53,1.17,1.17,0,0,1-1,.37c-1.12-.06-1.65-1.18-1.78-2.31,0-.08,0-.13.09-.07.49.55,1.05,1.12,1.69,1,.43-.08.75-.49,1.07-.84A6.38,6.38,0,0,0,180.15,248.41Z" style="fill:#263238"></path><path d="M184.1,249.28a2.81,2.81,0,0,1-.4,1.47,2.06,2.06,0,0,1-1.39.91,1.88,1.88,0,0,1-1.59-.53,3.3,3.3,0,0,1-.77-1.3,6.74,6.74,0,0,1-.2-.89,4.07,4.07,0,0,1,.11-1.87,6.38,6.38,0,0,0,.29,1.34,8.36,8.36,0,0,0,.46,1.15c.38.75.94,1.33,1.57,1.19s1.07-.7,1.21-1.54a13.35,13.35,0,0,0,.1-2.63A6,6,0,0,1,184.1,249.28Z" style="fill:#263238"></path><path d="M199.47,245.67a1.69,1.69,0,0,0,.53.41,1.18,1.18,0,0,0,1,.1c1.06-.35,1.27-1.58,1.09-2.7,0-.08-.06-.12-.1,0-.32.66-.71,1.36-1.36,1.4a2.31,2.31,0,0,1-1.26-.52A6.29,6.29,0,0,1,199.47,245.67Z" style="fill:#263238"></path><path d="M195.89,247.56a2.88,2.88,0,0,0,.78,1.32,2.08,2.08,0,0,0,1.58.5,1.89,1.89,0,0,0,1.39-.93A3.34,3.34,0,0,0,200,247a6.85,6.85,0,0,0,0-.91,4.25,4.25,0,0,0-.61-1.77,6.29,6.29,0,0,1,.08,1.36,8.12,8.12,0,0,1-.14,1.23c-.16.83-.55,1.54-1.2,1.57s-1.22-.39-1.57-1.16a13.41,13.41,0,0,1-.8-2.51A6,6,0,0,0,195.89,247.56Z" style="fill:#263238"></path><path d="M212.18,226.14a31,31,0,0,1-7.56,4,24.1,24.1,0,0,1-9.13,1.06c-4.91-.35-10.38-1.79-14.71,1.26,0,0,0,.06,0,0,5.78-3.21,12.34.4,18.5,0,4.73-.33,10.12-2.36,13.16-6.05C212.64,226.25,212.38,226,212.18,226.14Z" style="fill:#263238"></path><path d="M224.67,251.37a12.72,12.72,0,0,0-4.34-4.56c-2.23-1.42-4.43-2.54-6.09-4.64-3.59-4.52-4.2-10.67-3-16.1,0-.15-.22-.23-.27-.08-1.57,4.86-1.82,10,.9,14.62a14.56,14.56,0,0,0,5,5c2.9,1.78,5.59,3,7.54,5.9C224.51,251.63,224.75,251.51,224.67,251.37Z" style="fill:#263238"></path><path d="M230.49,259.1c-2-.25-6.9-3.19-7.56-6.91s-3-5.43-3.48-6.29-8.57-3.11-8.93-17.78a29.69,29.69,0,0,1-16.24,1.71c-10-1.92-15.66,2.08-18.93,6.11-1.62,2-2.81-11.11,8-18.34,4.61-3.11,8.78-4.06,11.78-5.38a12.71,12.71,0,0,0,3.55-2.25c2.35-2.91,2.58-7-.25-9.71-5.55-5.32-14.59-3.32-18.27,2.93,0,.05-.11,0-.08,0a12.12,12.12,0,0,1,3.52-4.17s0,0,0-.05a20.13,20.13,0,0,1,4.67-2.67,19.43,19.43,0,0,0-6.85,4.34c-.06,0-.16,0-.11-.09a19.82,19.82,0,0,1,13.06-6.31A15.94,15.94,0,0,0,184,197.16a.05.05,0,1,1-.07-.08c3.57-3.15,9.67-4.61,14.28-2.92a8.31,8.31,0,0,1,3.19,2.1,10,10,0,0,1,2.67,3.37c3.08-6.51,10.8-10.76,18.49-7.78a.09.09,0,0,1-.06.16,13.68,13.68,0,0,0-14.6,3.65,14.35,14.35,0,0,0-2.35,3.35,10.47,10.47,0,0,1,1.05-1.17c4.69-4.52,12.2-3.91,17.45-.66,0,0,0,.09,0,.06a23.11,23.11,0,0,0-3.69-1.39,9.49,9.49,0,0,1,2.92,1.55,0,0,0,0,1,0,.08,11.26,11.26,0,0,0-4.25-1.29,12.26,12.26,0,0,1,5.66,2.79c.13.13,0,.34-.18.22a11.16,11.16,0,0,0-13.43-.66,10.22,10.22,0,0,0-1.12,1,11.94,11.94,0,0,0-1.7,2.29,5.09,5.09,0,0,0-.47,2.93h0a.94.94,0,0,0,0,.12,6.63,6.63,0,0,0,.43,1.54.35.35,0,0,0,0,.08,3.22,3.22,0,0,0,.25.53,4,4,0,0,0,.22.4,1.22,1.22,0,0,0,.12.19,17.89,17.89,0,0,0,6.81,6c5.24,2.91,20.13,7.15,20.72,28C236.62,250.65,230.49,259.1,230.49,259.1Z" style="fill:#263238"></path><path d="M199,200.12c-3.82-4.16-11.15-3.34-15.13.3-.08.07,0,.21.1.14,3.66-3.06,10.26-3.63,13.81-.2,4,3.83,3.07,9.23-1,12.58a.22.22,0,0,0,.26.36C201.55,210.18,202.83,204.29,199,200.12Z" style="fill:#263238"></path><path d="M219,198.32s.06-.07,0-.08c-4.06-.65-10.57,0-11.89,4.74-1.37,4.88,2.46,9.78,7,11.16.26.08.56-.27.28-.45-3.51-2.17-7-5-6.56-9.63C208.29,198.92,214.85,197.84,219,198.32Z" style="fill:#263238"></path><path d="M236.53,232.23c-2.61-7.84-9.58-12.84-16.77-16.22,0,0,0,0,0,0,6.79,3.72,13.27,8.13,15.82,15.82,1.36,4.09,2.4,8.84,1.31,13.1s-3.85,7.82-6.41,11.34a.29.29,0,0,0,.45.36c2.77-3.35,5.51-7,6.72-11.22S237.92,236.39,236.53,232.23Z" style="fill:#263238"></path><path d="M198,210.88c-2.53,2-5.7,2.66-8.74,3.54s-6.86,2.18-9.53,4.15c-4.43,3.26-7.29,10.23-5.49,15.5.08.23.47.14.42-.1A14.38,14.38,0,0,1,176,224.3a14.7,14.7,0,0,1,7.64-7.11,69.7,69.7,0,0,1,8.21-3.06,15.36,15.36,0,0,0,6.12-3.19S198,210.85,198,210.88Z" style="fill:#263238"></path><path d="M235,263.45c-5.62-3.23-2-10.27-.31-14.88a.11.11,0,0,0-.2-.09c-1.91,4.58-6.83,12.67.35,15.34A.2.2,0,0,0,235,263.45Z" style="fill:#263238"></path><path d="M231.93,265.2c-2.65-3.48-1.63-8-.17-11.73a.3.3,0,0,0-.54-.24c-1.87,4-2.33,8.41.62,12C231.88,265.32,232,265.25,231.93,265.2Z" style="fill:#263238"></path><path d="M234.77,261.62c-4.36-2.82-1-9.26.38-12.81.1-.27-.32-.49-.47-.23-1.82,3.12-5.07,11.18,0,13.13C234.78,261.73,234.82,261.65,234.77,261.62Z" style="fill:#263238"></path><path d="M200.52,207a.16.16,0,1,0-.31,0c-.76,3.62-4,3.54-6.87,2.61a11.1,11.1,0,0,0-3.67-.81,6.2,6.2,0,0,0-5.28,3.5c-.08.14.15.28.25.15,1.38-1.8,3.35-3.1,5.71-2.72,2,.32,3.7,1.52,5.73,1.57A4.25,4.25,0,0,0,200.52,207Z" style="fill:#FFC727"></path><path d="M217,204.76c-1.67-6-8-.4-9.16,3l-.16-.05c-.34-.13-.71.36-.36.58C210.37,210.18,218.53,210.35,217,204.76Zm-9,3c1.35-2.1,6.46-7.58,8-2.93S210.52,208.59,208,207.77Z" style="fill:#FFC727"></path><path d="M200.68,208.73c-3.2,1.66-5.05-.17-7.84-1.42a6.77,6.77,0,0,0-5.78.29,0,0,0,0,0,0,.09c1.86-.08,3.61-.34,5.37.48,1.18.54,2.17,1.42,3.39,1.89a5.12,5.12,0,0,0,5.14-.8C201.23,209.06,201,208.57,200.68,208.73Z" style="fill:#FFC727"></path><path d="M198.16,208.38c2.16-.1,4.2-.83,6.39-.82s4.21.69,6.35.8c.4,0,.43-.49.17-.68-3.13-2.29-10-2.41-13.16-.18A.48.48,0,0,0,198.16,208.38Z" style="fill:#FFC727"></path><path d="M198.54,209.62a48.06,48.06,0,0,1,5.47-.8,36.2,36.2,0,0,1,6.23.51c.17,0,.38-.17.24-.33-1-1.06-3.68-1.61-5.45-1.67a11.74,11.74,0,0,0-6.7,1.55C198,209.07,198.12,209.68,198.54,209.62Z" style="fill:#FFC727"></path><path d="M215.57,249.8s3.52-8.54,8.24-9.26c5-.76,7,8.22,4,12.37-3.52,4.87-9.88,3.94-9.88,3.94Z" style="fill:#f7a9a0"></path><path d="M222.89,246a11.77,11.77,0,0,1,2.17-1.94c.09-.07,0-.22-.1-.17-3.42,1.86-6.29,6-5.31,10.06a.13.13,0,0,0,.26,0l.15-1.11a7.67,7.67,0,0,1,1.94-2.82,6.54,6.54,0,0,1,3.2-1.44c.13,0,.09-.21,0-.21a6.52,6.52,0,0,0-4.75,2.47,10.23,10.23,0,0,1,1-2.73,11.71,11.71,0,0,1,1.48-2.1Z" style="fill:#263238"></path><path d="M218.94,256.56a0,0,0,0,0,0,.05S219,256.57,218.94,256.56Z" style="fill:#263238"></path><path d="M175.16,234.41c0,2.5,0,5-.06,7.45s0,4.95-.12,7.46a39,39,0,0,1,.18-14.91Z" style="fill:#263238"></path><path d="M171.73,288.22c2.37,1.74,15.9,12.51,26.33,13.76,11.11,1.32,21.12-4.31,24.89-7,10.32-7.43,2.76-17.7-4.79-17-9,.82-15.31,4.41-20.71,4-6.59-.51-16.78-5.56-18.49-5.93C175.35,275.24,168.77,286,171.73,288.22Z" style="fill:#f7a9a0"></path><path d="M179.89,276.45c-.35-1.66-3-5.35-3.11-6.65s.44-4.59-1.47-4.47-2.1,5.1-2.13,6.23-8.69-6.44-10.52-4.42,4.59,6.61,4.23,7-7.56-3.65-8.93-1.75,6.74,5.55,6.66,5.7-5-4.37-6.56-2.95,6.07,6.46,5.89,6.82-5.3-1-5.74,1,7.66,3.16,8.35,3.36,5.73,2.73,6.87,2.26S180.15,277.63,179.89,276.45Z" style="fill:#f7a9a0"></path><path d="M159.47,274.88c-.12-.07-.2,0-.1.09a23.82,23.82,0,0,0,7.06,3.82s.06,0,0-.05C165.31,278.11,160.76,275.69,159.47,274.88Z" style="fill:#263238"></path><path d="M222.94,295c-3.76,2.73-13.78,8.36-24.88,7-8.06-1-18.12-7.87-23.32-11.28l6.65-14c3.86,1.19,11,4.81,16.06,5.2,5.39.42,11.74-3.17,20.71-4C225.72,277.24,233.27,287.52,222.94,295Z" style="fill:#37474f"></path><path d="M148.57,252.24c-1,13.6-11.16,112.82-10.1,117.67,0,0-47.74,41.73-62.77,12.91-9.78-18.74,28.11-111.9,50-141.67C135.68,227.47,150.73,223.71,148.57,252.24Z" style="fill:#f7a9a0"></path><path d="M88.81,298.71l57.51-4.84a372.05,372.05,0,0,0,4.15-44.19c.9-25.08-10.63-30.45-31.43-3.76A215,215,0,0,0,88.81,298.71Z" style="fill:#FFC727"></path><path d="M145.62,285.46c-4.3-.13-8.65.39-13,.63-4.09.22-8.2.44-12.29.8Q107.65,288,95,289.64c-.15,0-.14.27,0,.26q12.63-.64,25.22-1.62c4.18-.33,8.35-.76,12.51-1.2s8.66-.59,12.9-1.36A.13.13,0,0,0,145.62,285.46Z" style="fill:#263238"></path><path d="M147.92,288.13c.33-2.08.59-4.17.82-6.26,0-.43.09-.86.13-1.29A74.55,74.55,0,0,0,151,273c0-.09-.1-.14-.13-.05-.73,1.89-1.3,3.83-1.84,5.78a94.46,94.46,0,0,0,.59-9.64.08.08,0,0,0-.16,0c-.74,4.15-1.18,8.35-1.76,12.53-.29,2-1.44,12-1.56,12a11.86,11.86,0,0,0-1.78.29c-.32.15-.11.18,0,.17l2.58.13C147,294.14,147.64,289.9,147.92,288.13Z" style="fill:#263238"></path><path d="M260.57,283.11a7.22,7.22,0,0,1,1,8.56s6.9-.95,10,4c1.58,2.53-1.08,7.27-1.08,7.27s5.57-.52,8,4c1.95,3.61-1,7.82-1,7.82s5.58,2,6.39,6.31c1.63,8.77-27.48,28.71-39.33,21.07-5.52-3.57,1.86-8.05,1.86-8.05s-12.17,3.89-16.43-2,5.67-11.15,5.67-11.15S223.8,324.58,220,318c-4-6.83,6.88-10.37,6.88-10.37s-9.48,0-11.25-5.65c-2.91-9.39,19-10.23,24.39-16.14l-6.7-10.77S256.41,278.38,260.57,283.11Z" style="fill:#f7a9a0"></path><path d="M277.09,315.47c.09-.07.22,0,.13.13-8,8.9-19.47,16.22-31.22,18.76-.38.08-.68-.51-.28-.68C257.33,328.75,267.24,323.45,277.09,315.47Z" style="fill:#263238"></path><path d="M270.63,302.87c.11-.09.25.09.15.2-8.27,9.11-21.44,17-35.32,18.34-.48,0-1-.39-.41-.49C244.22,319.34,261.8,310.09,270.63,302.87Z" style="fill:#263238"></path><path d="M225.83,307.42c13.26-1.79,24.62-7.66,35.42-15.35.14-.11.27.1.17.22-4.26,5.21-11.65,9.4-17.68,12.17a35.35,35.35,0,0,1-17.85,3.42C225.64,307.86,225.54,307.45,225.83,307.42Z" style="fill:#263238"></path><path d="M176.45,398c23.89-2.18,49.23-7.87,68.1-24.35a12.4,12.4,0,0,0,4.21-6.94c8.58-7.23,7.75-13.46,7.75-13.46,5.93-9.18,4.2-15.43,4.2-15.43s10-8.61,5.79-15.51c-4.68-7.75-17.79,5.85-29.57,8.91-27,7-67.34,9.47-75.33,10.72Z" style="fill:#f7a9a0"></path><path d="M213.81,358.5c7.9-2.22,15.73-4.2,23.29-7.49,8.29-3.6,15.67-8.46,23.31-13.23a.22.22,0,0,1,.25.36c-12.45,10.8-30.45,18.46-46.76,20.72C213.51,358.92,213.41,358.61,213.81,358.5Z" style="fill:#263238"></path><path d="M215.68,375.41c7.57-2.59,20.85-7.23,40.67-22.34.06-.05.17,0,.1.11-11.56,11.52-24.95,18.65-40.64,22.59C215.32,375.9,215.18,375.59,215.68,375.41Z" style="fill:#263238"></path><path d="M216.86,384.48c12.7-4.9,20.09-9.59,31.82-17.75.06-.05.16,0,.09.11-12.34,10.67-18,13.15-31.8,18.1C216.49,385.11,216.36,384.67,216.86,384.48Z" style="fill:#263238"></path><path d="M203.86,337.66c-3.88-.48-3.66-2.51,2.29-6.11s32.52-12.77,28.54-21.77S193.39,314.27,184,321s-22.35,21-22.35,21C169.39,340.8,188.55,339.76,203.86,337.66Z" style="fill:#f7a9a0"></path><path d="M210.6,309.69a60.63,60.63,0,0,1,11.66-3.21,31,31,0,0,1,6.11-.48,13.43,13.43,0,0,1,3.12.45,6.26,6.26,0,0,1,2.92,1.62,4.49,4.49,0,0,1,1.18,3.22,6.76,6.76,0,0,1-1,3.16,16.91,16.91,0,0,1-4.2,4.58A44.23,44.23,0,0,1,220,325.08c1.74-1,3.45-2.07,5.08-3.22a44.23,44.23,0,0,0,4.73-3.63,17.52,17.52,0,0,0,3.75-4.4,5.62,5.62,0,0,0,.74-2.55,3.21,3.21,0,0,0-.84-2.29c-1.17-1.21-3.21-1.59-5.11-1.7a34.37,34.37,0,0,0-5.9.22c-2,.21-3.95.54-5.92.93S212.57,309.24,210.6,309.69Z" style="fill:#263238"></path><path d="M232.58,332.32a46.81,46.81,0,0,0,6.64-2,58.73,58.73,0,0,0,6.15-3.18q3-1.74,6.09-3.39c2.08-1.1,4.06-2.22,6.24-3.23a13.79,13.79,0,0,1,3.48-1,7.46,7.46,0,0,1,3.73.34,4.84,4.84,0,0,1,2.72,2.68,7.75,7.75,0,0,1,.46,3.67,14.47,14.47,0,0,1-2.45,6.69,22,22,0,0,1-4.81,5.15l.06-.22a8.48,8.48,0,0,1,.25,2.44,11.33,11.33,0,0,1-.37,2.39,12,12,0,0,0,.15-2.39,8.4,8.4,0,0,0-.39-2.31l0-.12.1-.1a24.8,24.8,0,0,0,4.4-5.25,14.71,14.71,0,0,0,2.08-6.36,6.86,6.86,0,0,0-.44-3.17,3.69,3.69,0,0,0-2.13-2c-2-.72-4.3-.13-6.35.69-4.14,1.9-8.22,4.23-12.37,6.3a52.55,52.55,0,0,1-6.37,2.93A38.49,38.49,0,0,1,232.58,332.32Z" style="fill:#263238"></path><path d="M161.6,342c7.64.93,41.12,47.72,30.43,51.45-50.28,17.52-95.48,8.29-105.06,3.92-12.55-5.74-14.3-22.89-9.44-30.5C84.59,355.81,154,341.05,161.6,342Z" style="fill:#f7a9a0"></path><path d="M105.33,353.83c24.35-9.38,56.37-12.14,56.43-12.16.49-.12,1.16.46.89.53-5,1.26-38.61,6.56-57,12.08C105.49,354.33,105.17,353.89,105.33,353.83Z" style="fill:#263238"></path></g><g id="freepik--Hearts--inject-17"><path d="M198.73,89.55c1.73,9.73,10.29,17.71,10.29,17.71s11.49-2.12,18.18-9.39c5.58-6.06,5.6-14.37.55-17.67-7.24-4.72-13.32,8.52-13.32,8.52s2-14.43-6.65-14.35C201.76,74.43,197.29,81.44,198.73,89.55Z" style="fill:#FFC727"></path><path d="M181.1,50.4c2.43,4.15,7.68,6.36,7.68,6.36s4.9-2.91,6.73-7.35c1.53-3.72.14-7.52-2.72-8.17-4.11-.94-4.66,6.13-4.66,6.13s-1.51-6.93-5.45-5.43C179.94,43,179.08,46.93,181.1,50.4Z" style="fill:#FFC727"></path></g></svg>